<svg width="391" height="50" viewBox="0 0 391 50" fill="none" xmlns="http://www.w3.org/2000/svg">
<path d="M127.17 3.70032H132.519L125.048 38.897H143.3L141.693 43.394H118.752L127.17 3.70032Z" fill="#3F4DA1"/>
<path d="M159.095 14.0856H164.275L158.063 43.3942H152.883L159.095 14.0856ZM161.733 1.48193H166.914L165.582 7.8737H160.402L161.733 1.48193Z" fill="#3F4DA1"/>
<path d="M172.73 43.3941L178.055 18.2108H173.486L174.373 14.0495H178.918L179.806 9.93626C181.005 4.51586 183.331 1.00219 188.812 1.00219C189.99 0.978697 191.164 1.1447 192.29 1.49386L191.342 5.71506C190.598 5.54891 189.838 5.46844 189.076 5.47522C186.449 5.47522 185.478 7.47789 184.854 10.356L184.087 14.0855H189.639L188.752 18.2468H183.2L177.875 43.4301L172.73 43.3941Z" fill="#3F4DA1"/>
<path d="M199.127 29.7831C198.914 30.7967 198.806 31.8294 198.803 32.865C198.803 36.7744 200.302 39.7125 204.427 39.7125C208.936 39.7125 210.423 36.6785 211.407 34.8197H216.659C215.064 38.921 211.862 43.9457 203.96 43.9457C196.585 43.9457 193.646 39.1489 193.646 32.6732C193.646 24.9503 197.964 13.5698 208.721 13.5698C215.688 13.5698 218.686 18.1988 218.686 23.7751C218.638 25.8002 218.352 27.8127 217.834 29.7711L199.127 29.7831ZM213.361 26.1135C213.53 25.3252 213.615 24.5212 213.613 23.7151C213.613 20.1175 212.006 17.7191 208.121 17.7191C203.528 17.7191 200.926 22.0362 199.93 26.1735L213.361 26.1135Z" fill="#3F4DA1"/>
<path d="M272.159 32.3015C269.952 38.4054 265.587 43.9697 255.898 43.9697C246.748 43.9697 242.299 38.0337 242.299 28.452C242.299 18.0909 248.115 3.1488 261.894 3.1488C270.948 3.1488 274.761 8.95296 274.701 15.8724H269.497C269.173 11.2794 267.17 7.59785 261.342 7.59785C252.204 7.59785 247.899 19.518 247.899 28.0803C247.899 35.0477 250.549 39.5567 256.461 39.5567C261.702 39.5567 264.544 36.9784 266.715 32.3614L272.159 32.3015Z" fill="#3F4DA1"/>
<path d="M294.749 1.48193L291.151 18.3547C292.131 16.8459 293.481 15.613 295.072 14.7734C296.663 13.9338 298.443 13.5153 300.241 13.5579C304.858 13.5579 308.935 16.3281 307.197 24.5187L303.239 43.3942H298.071L301.956 24.9864C302.844 20.7652 302.052 18.019 298.035 18.019C293.418 18.019 290.564 21.5087 289.34 27.2529L285.923 43.3942H280.742L289.568 1.48193H294.749Z" fill="#3F4DA1"/>
<path d="M337.899 36.7025C337.419 38.993 336.784 42.015 336.58 43.3941H331.591C331.711 42.3627 331.867 41.3674 332.215 39.6885C330.632 42.015 328.245 43.9097 323.58 43.9097C318.28 43.9097 315.773 40.3121 315.773 36.1389C315.773 30.0469 320.234 26.4373 328.437 25.7418C330.677 25.5286 332.927 25.4326 335.177 25.4539L335.512 23.9789C336.292 20.5252 335.74 17.4552 330.716 17.4552C326.59 17.4552 325.343 19.8537 324.564 22.0962H319.395C320.438 17.6591 323.34 13.5698 331.171 13.5698C337.887 13.5698 342.168 16.5439 340.429 24.6385L337.899 36.7025ZM334.433 29.1835C332.519 29.1412 330.605 29.2173 328.701 29.4113C324.468 29.8191 321.158 31.5219 321.158 35.4073C321.158 37.8058 322.489 39.7125 325.595 39.7125C331.291 39.7125 333.162 34.9876 334.157 30.4067L334.433 29.1835Z" fill="#3F4DA1"/>
<path d="M353.464 24.0029C354.435 19.3021 355.071 16.0882 355.419 14.0855H360.395C360.165 16.0117 359.837 17.9249 359.412 19.8177C360.38 17.9036 361.87 16.3029 363.71 15.2013C365.55 14.0997 367.665 13.5424 369.809 13.5938L368.61 19.0023C362.422 19.1821 358.836 22.7318 357.457 29.3154L354.567 43.3941H349.387L353.464 24.0029Z" fill="#3F4DA1"/>
<path d="M375.179 14.0856H379.976L381.846 5.69116H386.943L385.096 14.0856H390.96L390.049 18.2468H384.185L380.275 36.2349C379.784 38.6333 380.191 39.6287 382.674 39.6287C383.711 39.5884 384.743 39.4519 385.756 39.2209L384.952 43.0104C383.573 43.4728 382.126 43.7038 380.671 43.694C376.258 43.694 373.92 41.9431 375.059 36.4987L379.076 18.1989H374.279L375.179 14.0856Z" fill="#3F4DA1"/>
<path d="M2 47.1235L35.17 14.685L57.2834 33.4406L89.2901 2.54907" fill="white"/>
<path d="M2 47.1235L35.17 14.685L57.2834 33.4406L89.2901 2.54907" stroke="#2E3192" stroke-width="4" stroke-linecap="round" stroke-linejoin="round"/>
</svg>
