<svg width="183" height="30" viewBox="0 0 183 30" fill="none" xmlns="http://www.w3.org/2000/svg">
<path d="M60.2475 3.49377H62.7364L59.2598 22.9639H67.7532L67.0054 25.4515H56.3301L60.2475 3.49377Z" fill="#FAFAFA"/>
<path d="M75.1035 9.23869H77.5143L74.6236 25.4516H72.2129L75.1035 9.23869ZM76.3312 2.2666H78.742L78.1225 5.8024H75.7118L76.3312 2.2666Z" fill="#FAFAFA"/>
<path d="M81.4482 25.4516L83.9259 11.5207H81.7998L82.2128 9.21874H84.3277L84.7407 6.94336C85.2987 3.9449 86.3813 2.00121 88.9316 2.00121C89.4798 1.98822 90.0262 2.08005 90.5499 2.27319L90.109 4.60828C89.7629 4.51637 89.409 4.47185 89.0543 4.4756C87.8322 4.4756 87.3802 5.58344 87.09 7.17555L86.7329 9.23865H89.3166L88.9037 11.5406H86.3199L83.8422 25.4715L81.4482 25.4516Z" fill="#FAFAFA"/>
<path d="M93.7309 17.9223C93.6319 18.483 93.5815 19.0543 93.5802 19.6272C93.5802 21.7898 94.2778 23.4151 96.1975 23.4151C98.2957 23.4151 98.9877 21.7368 99.4452 20.7085H101.889C101.147 22.9773 99.6573 25.7568 95.9798 25.7568C92.5479 25.7568 91.1807 23.1033 91.1807 19.5211C91.1807 15.2489 93.1896 8.95349 98.1952 8.95349C101.437 8.95349 102.833 11.5141 102.833 14.5988C102.81 15.7191 102.677 16.8323 102.436 17.9157L93.7309 17.9223ZM100.355 15.8924C100.433 15.4563 100.473 15.0116 100.472 14.5657C100.472 12.5755 99.7243 11.2488 97.9162 11.2488C95.7789 11.2488 94.568 13.6369 94.1048 15.9256L100.355 15.8924Z" fill="#FAFAFA"/>
<path d="M127.717 19.3154C126.691 22.692 124.659 25.7701 120.15 25.7701C115.893 25.7701 113.822 22.4863 113.822 17.186C113.822 11.4544 116.529 3.18872 122.941 3.18872C127.154 3.18872 128.928 6.39946 128.901 10.2271H126.479C126.328 7.68641 125.396 5.64985 122.684 5.64985C118.432 5.64985 116.428 12.2438 116.428 16.9803C116.428 20.8345 117.662 23.3288 120.413 23.3288C122.851 23.3288 124.174 21.9026 125.184 19.3486L127.717 19.3154Z" fill="#FAFAFA"/>
<path d="M138.228 2.2666L136.554 11.6003C137.01 10.7657 137.638 10.0836 138.378 9.61917C139.119 9.1547 139.947 8.92323 140.784 8.9468C142.932 8.9468 144.83 10.4792 144.02 15.0101L142.179 25.4516H139.774L141.582 15.2688C141.995 12.9337 141.626 11.4146 139.757 11.4146C137.608 11.4146 136.28 13.345 135.711 16.5226L134.121 25.4516H131.71L135.817 2.2666H138.228Z" fill="#FAFAFA"/>
<path d="M158.308 21.75C158.084 23.0171 157.789 24.6888 157.694 25.4517H155.372C155.428 24.8812 155.501 24.3306 155.662 23.4018C154.926 24.6888 153.815 25.7369 151.645 25.7369C149.178 25.7369 148.012 23.7468 148.012 21.4382C148.012 18.0683 150.088 16.0715 153.905 15.6868C154.947 15.5689 155.994 15.5157 157.041 15.5276L157.197 14.7116C157.56 12.8011 157.303 11.1028 154.965 11.1028C153.045 11.1028 152.465 12.4296 152.102 13.6701H149.697C150.183 11.2156 151.533 8.95349 155.177 8.95349C158.302 8.95349 160.294 10.5987 159.485 15.0765L158.308 21.75ZM156.695 17.5907C155.804 17.5673 154.914 17.6094 154.027 17.7167C152.058 17.9422 150.517 18.8842 150.517 21.0336C150.517 22.3603 151.137 23.4151 152.582 23.4151C155.233 23.4151 156.103 20.8014 156.566 18.2673L156.695 17.5907Z" fill="#FAFAFA"/>
<path d="M165.551 14.7249C166.003 12.1244 166.298 10.3466 166.46 9.23876H168.776C168.669 10.3043 168.516 11.3626 168.319 12.4097C168.769 11.3508 169.462 10.4654 170.319 9.85599C171.175 9.24661 172.159 8.93829 173.157 8.96678L172.599 11.9586C169.719 12.0581 168.051 14.0217 167.409 17.6636L166.064 25.4517H163.653L165.551 14.7249Z" fill="#FAFAFA"/>
<path d="M175.656 9.23873H177.888L178.759 4.59509H181.13L180.271 9.23873H183L182.576 11.5406H179.847L178.028 21.4913C177.799 22.818 177.988 23.3686 179.144 23.3686C179.626 23.3464 180.107 23.2708 180.578 23.1431L180.204 25.2394C179.562 25.4952 178.889 25.6229 178.212 25.6175C176.158 25.6175 175.07 24.649 175.6 21.6372L177.469 11.5141H175.237L175.656 9.23873Z" fill="#FAFAFA"/>
<path d="M2 27.5148L17.4354 9.57042L27.7257 19.9456L42.6198 2.85706" fill="#485082"/>
<path d="M2 27.5148L17.4354 9.57042L27.7257 19.9456L42.6198 2.85706" stroke="#FAFAFA" stroke-width="4" stroke-linecap="round" stroke-linejoin="round"/>
</svg>
