<svg width="298" height="76" viewBox="0 0 298 76" fill="none" xmlns="http://www.w3.org/2000/svg">
<rect width="298" height="76" fill="#26A69A"/>
<path d="M54.0781 47.3516H69.0078V53H47.0469V18.875H54.0781V47.3516ZM79.7656 53H72.9688V27.6406H79.7656V53ZM72.5703 21.0781C72.5703 20.0625 72.9062 19.2266 73.5781 18.5703C74.2656 17.9141 75.1953 17.5859 76.3672 17.5859C77.5234 17.5859 78.4453 17.9141 79.1328 18.5703C79.8203 19.2266 80.1641 20.0625 80.1641 21.0781C80.1641 22.1094 79.8125 22.9531 79.1094 23.6094C78.4219 24.2656 77.5078 24.5938 76.3672 24.5938C75.2266 24.5938 74.3047 24.2656 73.6016 23.6094C72.9141 22.9531 72.5703 22.1094 72.5703 21.0781ZM87.2188 53V32.6094H83.4453V27.6406H87.2188V25.4844C87.2188 22.6406 88.0312 20.4375 89.6562 18.875C91.2969 17.2969 93.5859 16.5078 96.5234 16.5078C97.4609 16.5078 98.6094 16.6641 99.9688 16.9766L99.8984 22.2266C99.3359 22.0859 98.6484 22.0156 97.8359 22.0156C95.2891 22.0156 94.0156 23.2109 94.0156 25.6016V27.6406H99.0547V32.6094H94.0156V53H87.2188ZM113.68 53.4688C109.961 53.4688 106.93 52.3281 104.586 50.0469C102.258 47.7656 101.094 44.7266 101.094 40.9297V40.2734C101.094 37.7266 101.586 35.4531 102.57 33.4531C103.555 31.4375 104.945 29.8906 106.742 28.8125C108.555 27.7188 110.617 27.1719 112.93 27.1719C116.398 27.1719 119.125 28.2656 121.109 30.4531C123.109 32.6406 124.109 35.7422 124.109 39.7578V42.5234H107.961C108.18 44.1797 108.836 45.5078 109.93 46.5078C111.039 47.5078 112.438 48.0078 114.125 48.0078C116.734 48.0078 118.773 47.0625 120.242 45.1719L123.57 48.8984C122.555 50.3359 121.18 51.4609 119.445 52.2734C117.711 53.0703 115.789 53.4688 113.68 53.4688ZM112.906 32.6562C111.562 32.6562 110.469 33.1094 109.625 34.0156C108.797 34.9219 108.266 36.2188 108.031 37.9062H117.453V37.3672C117.422 35.8672 117.016 34.7109 116.234 33.8984C115.453 33.0703 114.344 32.6562 112.906 32.6562ZM167.164 41.6328C166.898 45.3047 165.539 48.1953 163.086 50.3047C160.648 52.4141 157.43 53.4688 153.43 53.4688C149.055 53.4688 145.609 52 143.094 49.0625C140.594 46.1094 139.344 42.0625 139.344 36.9219V34.8359C139.344 31.5547 139.922 28.6641 141.078 26.1641C142.234 23.6641 143.883 21.75 146.023 20.4219C148.18 19.0781 150.68 18.4062 153.523 18.4062C157.461 18.4062 160.633 19.4609 163.039 21.5703C165.445 23.6797 166.836 26.6406 167.211 30.4531H160.18C160.008 28.25 159.391 26.6562 158.328 25.6719C157.281 24.6719 155.68 24.1719 153.523 24.1719C151.18 24.1719 149.422 25.0156 148.25 26.7031C147.094 28.375 146.5 30.9766 146.469 34.5078V37.0859C146.469 40.7734 147.023 43.4688 148.133 45.1719C149.258 46.875 151.023 47.7266 153.43 47.7266C155.602 47.7266 157.219 47.2344 158.281 46.25C159.359 45.25 159.977 43.7109 160.133 41.6328H167.164ZM177.945 30.4062C179.742 28.25 182 27.1719 184.719 27.1719C190.219 27.1719 193.008 30.3672 193.086 36.7578V53H186.312V36.9453C186.312 35.4922 186 34.4219 185.375 33.7344C184.75 33.0312 183.711 32.6797 182.258 32.6797C180.273 32.6797 178.836 33.4453 177.945 34.9766V53H171.172V17H177.945V30.4062ZM212.891 53C212.578 52.3906 212.352 51.6328 212.211 50.7266C210.57 52.5547 208.438 53.4688 205.812 53.4688C203.328 53.4688 201.266 52.75 199.625 51.3125C198 49.875 197.188 48.0625 197.188 45.875C197.188 43.1875 198.18 41.125 200.164 39.6875C202.164 38.25 205.047 37.5234 208.812 37.5078H211.93V36.0547C211.93 34.8828 211.625 33.9453 211.016 33.2422C210.422 32.5391 209.477 32.1875 208.18 32.1875C207.039 32.1875 206.141 32.4609 205.484 33.0078C204.844 33.5547 204.523 34.3047 204.523 35.2578H197.75C197.75 33.7891 198.203 32.4297 199.109 31.1797C200.016 29.9297 201.297 28.9531 202.953 28.25C204.609 27.5312 206.469 27.1719 208.531 27.1719C211.656 27.1719 214.133 27.9609 215.961 29.5391C217.805 31.1016 218.727 33.3047 218.727 36.1484V47.1406C218.742 49.5469 219.078 51.3672 219.734 52.6016V53H212.891ZM207.289 48.2891C208.289 48.2891 209.211 48.0703 210.055 47.6328C210.898 47.1797 211.523 46.5781 211.93 45.8281V41.4688H209.398C206.008 41.4688 204.203 42.6406 203.984 44.9844L203.961 45.3828C203.961 46.2266 204.258 46.9219 204.852 47.4688C205.445 48.0156 206.258 48.2891 207.289 48.2891ZM238.18 33.9922C237.258 33.8672 236.445 33.8047 235.742 33.8047C233.18 33.8047 231.5 34.6719 230.703 36.4062V53H223.93V27.6406H230.328L230.516 30.6641C231.875 28.3359 233.758 27.1719 236.164 27.1719C236.914 27.1719 237.617 27.2734 238.273 27.4766L238.18 33.9922ZM250.742 21.4062V27.6406H255.078V32.6094H250.742V45.2656C250.742 46.2031 250.922 46.875 251.281 47.2812C251.641 47.6875 252.328 47.8906 253.344 47.8906C254.094 47.8906 254.758 47.8359 255.336 47.7266V52.8594C254.008 53.2656 252.641 53.4688 251.234 53.4688C246.484 53.4688 244.062 51.0703 243.969 46.2734V32.6094H240.266V27.6406H243.969V21.4062H250.742Z" fill="white"/>
</svg>
